<svg width="28" height="28" viewBox="0 0 28 28" fill="none" xmlns="http://www.w3.org/2000/svg">
<path d="M7.39851 7.46931C11.0881 3.7797 17.0682 3.77655 20.7617 7.45985L16.7865 11.454L26.2424 11.4089L26.1976 1.99805L22.6676 5.54494C17.9186 0.811092 10.2313 0.815754 5.48812 5.55893C3.11448 7.93257 1.92726 11.0463 1.92725 14.1556L4.62893 14.1556C4.62895 11.7335 5.55187 9.31594 7.39851 7.46931Z" fill="white"/>
<path d="M20.7712 20.842C22.6178 18.9953 23.5408 16.5777 23.5408 14.1556L26.2424 14.1556C26.2425 17.2649 25.0552 20.3787 22.6816 22.7524C17.9384 27.4955 10.2511 27.5002 5.50213 22.7664L1.97205 26.3132L1.92725 16.9024L11.3832 16.8573L7.40798 20.8514C11.1015 24.5347 17.0816 24.5316 20.7712 20.842Z" fill="white"/>
</svg>
