<svg width="27" height="27" viewBox="0 0 27 27" fill="none" xmlns="http://www.w3.org/2000/svg">
<path fill-rule="evenodd" clip-rule="evenodd" d="M3.80934 1.52649C3.54868 1.37009 3.22405 1.366 2.95953 1.51577C2.695 1.66554 2.53149 1.94603 2.53149 2.25V12.375C2.53149 12.679 2.695 12.9594 2.95953 13.1092C3.22405 13.259 3.54868 13.2549 3.80934 13.0985L12.2469 8.03601C12.501 7.88353 12.6565 7.60888 12.6565 7.3125C12.6565 7.01612 12.501 6.74147 12.2469 6.58899L3.80934 1.52649ZM13.7808 6.74986C13.7808 6.28388 14.1586 5.90611 14.6246 5.90611H23.6245C24.0905 5.90611 24.4683 6.28388 24.4683 6.74986C24.4683 7.21585 24.0905 7.59361 23.6245 7.59361H14.6246C14.1586 7.59361 13.7808 7.21585 13.7808 6.74986ZM3.375 14.9063C2.90901 14.9063 2.53125 15.2841 2.53125 15.75C2.53125 16.216 2.90901 16.5938 3.375 16.5938H23.625C24.091 16.5938 24.4688 16.216 24.4688 15.75C24.4688 15.2841 24.091 14.9063 23.625 14.9063H3.375ZM3.37548 23.9065C2.90948 23.9065 2.53173 24.2843 2.53173 24.7502C2.53173 25.2162 2.90948 25.594 3.37548 25.594H23.6255C24.0914 25.594 24.4692 25.2162 24.4692 24.7502C24.4692 24.2843 24.0914 23.9065 23.6255 23.9065H3.37548Z" fill="white"/>
</svg>
