<svg width="28" height="28" viewBox="0 0 28 28" fill="none" xmlns="http://www.w3.org/2000/svg">
<path d="M22.0207 12.8048L27.4241 7.45287L22.0207 1.99805V6.20183C18.8547 6.50947 16.6107 7.27473 14.947 8.39008C13.6993 9.2265 12.8386 10.2226 12.1802 11.2372C11.6011 10.2515 10.8599 9.26995 9.79304 8.44397C7.8272 6.92203 4.95226 6.05058 0.407227 6.05058V8.75227C4.64268 8.75227 6.8334 9.56937 8.13914 10.5803C9.32438 11.4979 9.94145 12.677 10.6497 14.161C10.5524 14.3766 10.4628 14.5824 10.377 14.7796C9.88587 15.9087 9.5181 16.7541 8.51229 17.5328C7.20655 18.5437 4.64268 19.559 0.407227 19.559V22.2607C4.95226 22.2607 7.8272 21.3893 9.79304 19.8673C10.8599 19.0413 11.6011 18.0598 12.1802 17.0741C12.8386 18.0887 13.6993 19.0848 14.947 19.9212C16.6107 21.0366 18.8547 21.8018 22.0207 22.1095V26.3132L27.4241 20.9613L22.0207 15.5065V19.3937C19.3147 19.1016 17.6063 18.4513 16.4514 17.6771C15.0769 16.7557 14.3425 15.5707 13.6429 14.1556C14.3425 12.7406 15.0769 11.5556 16.4514 10.6342C17.6063 9.85994 19.3147 9.2097 22.0207 8.9176V12.8048Z" fill="white"/>
</svg>
