<svg width="28" height="28" viewBox="0 0 28 28" fill="none" xmlns="http://www.w3.org/2000/svg">
<path d="M17.7245 5.00804C22.4723 9.75588 22.4723 17.4536 17.7245 22.2015L19.6349 24.1119C25.4378 18.3089 25.4378 8.90057 19.6349 3.09766L17.7245 5.00804Z" fill="white"/>
<path d="M2.70143 18.9122C1.95538 18.9122 1.35059 18.3074 1.35059 17.5614V9.45629C1.35059 8.71024 1.95538 8.10544 2.70143 8.10544H3.86592C4.23839 8.10544 4.59433 7.95165 4.8496 7.68042L8.47197 3.83166C9.31038 2.94085 10.8065 3.53417 10.8065 4.75748V22.2602C10.8065 23.4835 9.31038 24.0768 8.47197 23.186L4.8496 19.3372C4.59433 19.066 4.23839 18.9122 3.86592 18.9122H2.70143Z" fill="white"/>
<path d="M13.672 18.6125C16.3097 15.9748 16.3097 11.6983 13.672 9.06057L15.5824 7.15019C19.2751 10.843 19.2751 16.8301 15.5824 20.5229L13.672 18.6125Z" fill="white"/>
</svg>
